<?xml version="1.0" encoding="UTF-8"?>
<svg width="38px" height="38px" viewBox="0 0 38 38" version="1.1" xmlns="http://www.w3.org/2000/svg" xmlns:xlink="http://www.w3.org/1999/xlink">
    <!-- Generator: Sketch 52.4 (67378) - http://www.bohemiancoding.com/sketch -->
    <title>icon_zhushijiao</title>
    <desc>Created with Sketch.</desc>
    <g id="Page-2" stroke="none" stroke-width="1" fill="none" fill-rule="evenodd">
        <g id="icon_cut" transform="translate(-949.000000, -153.000000)">
            <g id="icon" transform="translate(143.000000, 152.000000)">
                <g id="主视角" transform="translate(806.000000, 1.000000)">
                    <g id="icon_zhushijiao">
                        <g id="分组">
                            <circle id="椭圆形" fill="#FFFFFF" cx="19" cy="19" r="19"></circle>
                            <g id="视角" transform="translate(7.000000, 7.000000)" fill-rule="nonzero">
                                <path d="M4,7.92269089 L4,15.7680727 L11.9999958,19.6907636 L19.9999916,15.7680727 L19.9999916,7.92269089 L11.9999958,4 L4,7.92269089 Z M11.333318,17.8994079 L5.33333263,14.9573954 L5.33333263,9.30873043 L11.333318,12.250743 L11.333318,17.8994079 Z M18.666636,14.9573954 L12.6666506,17.8994079 L12.6666506,12.250743 L18.666636,9.30873043 L18.666636,14.9573954 Z M11.9999728,11.1131579 L6.23998595,8.28881412 L11.9999728,5.45139856 L17.7599597,8.27574231 L11.9999728,11.1131579 Z" id="形状" fill="#2B90FF"></path>
                                <path d="M18.6225213,1.30756252 L18.4358547,1.2291087 L18.2091882,1.11142798 L17.5825216,0.810688567 L17.4625217,0.810688567 C16.6819187,0.453645721 15.8636785,0.181785985 15.0225255,0 L14.6091917,0 C14.2632288,0.00946727815 13.9905963,0.292179632 14.0002486,0.631458329 C14.0043266,0.774775569 14.0593724,0.912184354 14.1558583,1.01990053 L16.515855,3.79193453 C16.7318571,4.05712764 17.1261792,4.1003908 17.396601,3.88856333 C17.4779902,3.82480898 17.54189,3.74216385 17.5825215,3.64810297 L18.0891889,2.5235987 L18.0891892,2.52359888 C21.3522081,4.40208485 23.3562863,7.83519158 23.3558496,11.5457812 L24.689186,11.5457812 L24.6891824,11.5455625 C24.6925161,7.31097388 22.3756548,3.40115195 18.6223202,1.30745448 L18.6225213,1.30756252 Z" id="路径" fill="#33E6EE"></path>
                                <path d="M8.15999814,19.7277838 C7.94399607,19.4625908 7.54967392,19.4193276 7.27925217,19.6311551 C7.19786297,19.6949094 7.13396311,19.7775545 7.09333159,19.8716154 L6.58666427,21.009196 L6.58666388,21.0091958 C3.33286067,19.1297948 1.33484965,15.7033276 1.33333285,12.0000853 L0,12 C0.0109192995,16.2205477 2.32573089,20.1121818 6.06658649,22.1990279 L6.13325312,22.1990279 L6.73325165,22.4997673 L6.99991818,22.6305236 L7.53325123,22.8528095 L7.89325127,22.9966415 L7.99999349,22.9966415 C8.54327297,23.1893108 9.10035078,23.342278 9.66665806,23.4542876 L10.0799919,23.4542876 C10.4259546,23.4448203 10.6985872,23.1621079 10.6889349,22.8228293 C10.6848569,22.679512 10.6298111,22.5421032 10.5333254,22.434387 L8.15999814,19.7277838 Z" id="路径" fill="#33E6EE"></path>
                            </g>
                        </g>
                    </g>
                </g>
            </g>
        </g>
    </g>
</svg>