<?xml version="1.0" encoding="UTF-8"?>
<svg width="38px" height="38px" viewBox="0 0 38 38" version="1.1" xmlns="http://www.w3.org/2000/svg" xmlns:xlink="http://www.w3.org/1999/xlink">
    <!-- Generator: Sketch 52.4 (67378) - http://www.bohemiancoding.com/sketch -->
    <title>icon_xunhang</title>
    <desc>Created with Sketch.</desc>
    <g id="Page-2" stroke="none" stroke-width="1" fill="none" fill-rule="evenodd">
        <g id="icon_cut" transform="translate(-1049.000000, -153.000000)">
            <g id="icon" transform="translate(143.000000, 152.000000)">
                <g id="巡航" transform="translate(906.000000, 1.000000)">
                    <g id="icon_xunhang">
                        <g id="分组">
                            <circle id="椭圆形" fill="#FFFFFF" cx="19" cy="19" r="19"></circle>
                            <g id="icon_xunhangjiancha" transform="translate(10.000000, 10.000000)">
                                <circle id="椭圆形" stroke="#2B90FF" stroke-width="1.5" fill-rule="nonzero" cx="9" cy="9" r="7"></circle>
                                <path d="M9,2.06501483e-13 C9.55228475,2.0640003e-13 10,0.44771525 10,1 L10,4.39772727 C10,4.95001202 9.55228475,5.39772727 9,5.39772727 C8.44771525,5.39772727 8,4.95001202 8,4.39772727 L8,1 C8,0.44771525 8.44771525,2.06491913e-13 9,2.0639046e-13 Z M9,13.6022727 C9.55228475,13.6022727 10,14.049988 10,14.6022727 L10,18 C10,18.5522847 9.55228475,19 9,19 C8.44771525,19 8,18.5522847 8,18 L8,14.6022727 C8,14.049988 8.44771525,13.6022727 9,13.6022727 Z" id="合并形状" fill="#33E6EE"></path>
                                <path d="M9.5,0.5 C10.0522847,0.5 10.5,0.94771525 10.5,1.5 L10.5,4.89772727 C10.5,5.45001202 10.0522847,5.89772727 9.5,5.89772727 C8.94771525,5.89772727 8.5,5.45001202 8.5,4.89772727 L8.5,1.5 C8.5,0.94771525 8.94771525,0.5 9.5,0.5 Z M9.5,14.1022727 C10.0522847,14.1022727 10.5,14.549988 10.5,15.1022727 L10.5,18.5 C10.5,19.0522847 10.0522847,19.5 9.5,19.5 C8.94771525,19.5 8.5,19.0522847 8.5,18.5 L8.5,15.1022727 C8.5,14.549988 8.94771525,14.1022727 9.5,14.1022727 Z" id="合并形状-copy" fill="#33E6EE" transform="translate(9.500000, 10.000000) rotate(-270.000000) translate(-9.500000, -10.000000) "></path>
                                <circle id="椭圆形" fill="#33E6EE" cx="9" cy="9" r="2"></circle>
                            </g>
                        </g>
                    </g>
                </g>
            </g>
        </g>
    </g>
</svg>