<?xml version="1.0" encoding="UTF-8"?>
<svg width="38px" height="38px" viewBox="0 0 38 38" version="1.1" xmlns="http://www.w3.org/2000/svg" xmlns:xlink="http://www.w3.org/1999/xlink">
    <!-- Generator: Sketch 52.4 (67378) - http://www.bohemiancoding.com/sketch -->
    <title>icon_yinying_p</title>
    <desc>Created with Sketch.</desc>
    <defs>
        <path d="M11.3443198,2.13186922 L11.3443198,3.33134054e-06 L13.7033654,-1.83408844e-13 C14.0043545,-1.83408844e-13 14.2509487,0.245868701 14.2509487,0.546857779 L14.2509487,13.7026398 C14.2509487,14.00508 14.0043545,14.2509487 13.7033654,14.2509487 L0.547583338,14.2509487 C0.245868701,14.2509487 1.84141844e-08,14.00508 -1.01607611e-12,13.7026398 L-1.01607611e-12,11.3443308 L2.01655043,11.3443308 L3.82655702,13.1543309 L4.88183269,13.1543309 L3.07246389,11.3443308 L4.63760768,11.3443308 L6.44697,13.1543309 L7.34123421,13.1543309 L5.53123409,11.3443308 L7.09711996,11.3443308 L8.90712655,13.1543309 L9.85506186,13.1543309 L8.04569306,11.3443308 L9.61083412,11.3443308 L11.42019,13.1543309 L12.3151797,13.1543309 L10.5045483,11.3443308 L11.3443198,11.3443308 L11.3443198,10.6192274 L13.1536127,12.4297959 L13.1536127,11.3730691 L11.3443198,9.56377618 L11.3443198,7.99862413 L13.1536127,9.8079171 L13.1536127,8.91437845 L11.3443198,7.10508548 L11.3443198,5.53858852 L13.1536127,7.34851927 L13.1536127,6.3998584 L11.3443198,4.59056542 L11.3443198,3.02613341 L13.1536127,4.83542639 L13.1536127,3.94116218 L11.3443198,2.13186922 Z M1.09660674,13.1543309 L2.26067389,13.1543309 L1.09660674,11.9902638 L1.09660674,13.1543309 Z M13.1536127,2.37528457 L13.1536127,1.09517404 L11.8742259,1.09517404 L13.1536127,2.37528457 Z" id="path-1"></path>
    </defs>
    <g id="Page-2" stroke="none" stroke-width="1" fill="none" fill-rule="evenodd">
        <g id="icon_cut" transform="translate(-559.000000, -361.000000)">
            <g id="icon-copy" transform="translate(143.000000, 360.000000)">
                <g id="阴影" transform="translate(416.000000, 1.000000)">
                    <g id="icon_yinying_p">
                        <circle id="椭圆形" fill="#2F80E7" cx="19" cy="19" r="19"></circle>
                        <g id="icon_touying" transform="translate(13.000000, 13.000000)">
                            <g id="矩形">
                                <mask id="mask-2" fill="white">
                                    <use xlink:href="#path-1"></use>
                                </mask>
                                <use id="Mask" fill="#FFFFFF" fill-rule="nonzero" xlink:href="#path-1"></use>
                            </g>
                        </g>
                        <rect id="矩形" stroke="#56EAF0" stroke-width="1.5" x="10.75" y="10.75" width="12.5" height="12.5" rx="1"></rect>
                    </g>
                </g>
            </g>
        </g>
    </g>
</svg>