<?xml version="1.0" encoding="UTF-8"?>
<svg width="38px" height="38px" viewBox="0 0 38 38" version="1.1" xmlns="http://www.w3.org/2000/svg" xmlns:xlink="http://www.w3.org/1999/xlink">
    <!-- Generator: Sketch 52.4 (67378) - http://www.bohemiancoding.com/sketch -->
    <title>icon_bengzhaungtai</title>
    <desc>Created with Sketch.</desc>
    <g id="Page-2" stroke="none" stroke-width="1" fill="none" fill-rule="evenodd">
        <g id="icon_cut" transform="translate(-362.000000, -152.000000)">
            <g id="icon" transform="translate(143.000000, 152.000000)">
                <g id="泵状态" transform="translate(219.000000, 0.000000)">
                    <g id="icon_bengzhaungtai">
                        <g id="分组">
                            <circle id="椭圆形" fill="#FFFFFF" cx="19" cy="19" r="19"></circle>
                            <g id="分组-7" transform="translate(9.000000, 11.000000)">
                                <path d="M9.00000017,0 L19,0 C20.1045695,-2.02906125e-16 21,0.8954305 21,2 L21,5 C21,6.1045695 20.1045695,7 19,7 L17.7769836,7 C17.9229386,7.64322274 18,8.31261204 18,9 C18,13.9705627 13.9705627,18 9,18 C4.02943725,18 0,13.9705627 0,9 C0,4.02943725 4.02943725,0 9,0 Z" id="合并形状" stroke="#2F80E7" stroke-width="2"></path>
                                <path d="M13.2510275,12.8986281 C13.2510275,12.8986281 12.3319307,14.9849546 8.57765176,14.9535764 L8.57765176,11.6593757 L8.57765161,11.6593757 C8.07590091,11.5983831 7.60107816,11.3973471 7.20679759,11.0789693 L5.04147379,13.3692246 C5.04147379,13.3692246 2.95404185,12.4593981 3.00077308,8.66322077 L6.22540291,8.66322077 L6.22540293,8.66322056 C6.27777659,8.12934767 6.48347894,7.62240628 6.8173636,7.20436192 L4.6520398,5.05529869 C4.6520398,5.05529869 5.57113657,2.96897223 9.32541552,3.00035043 L9.32541552,6.23179474 L9.32541575,6.23179476 C9.86138665,6.29527606 10.3660858,6.5193321 10.7741597,6.87494777 L12.9239129,4.72588453 C12.9239129,4.72588453 15.0113449,5.65139816 14.9646136,9.43188835 L11.677682,9.43188835 L11.6776819,9.43188872 C11.6081029,9.94040393 11.3975323,10.4188538 11.0701429,10.8123136 L13.2510275,12.8986281 Z" id="路径" fill="#2F80E7"></path>
                                <circle id="椭圆形" fill="#33E6EE" cx="9" cy="9" r="2"></circle>
                            </g>
                        </g>
                    </g>
                </g>
            </g>
        </g>
    </g>
</svg>