<?xml version="1.0" encoding="UTF-8"?>
<svg width="38px" height="38px" viewBox="0 0 38 38" version="1.1" xmlns="http://www.w3.org/2000/svg" xmlns:xlink="http://www.w3.org/1999/xlink">
    <!-- Generator: Sketch 52.4 (67378) - http://www.bohemiancoding.com/sketch -->
    <title>icon_youguancunchu</title>
    <desc>Created with Sketch.</desc>
    <g id="Page-2" stroke="none" stroke-width="1" fill="none" fill-rule="evenodd">
        <g id="icon_cut" transform="translate(-852.000000, -153.000000)">
            <g id="icon" transform="translate(143.000000, 152.000000)">
                <g id="油罐储备" transform="translate(709.000000, 1.000000)">
                    <g id="icon_youguancunchu">
                        <g id="分组">
                            <circle id="椭圆形" fill="#FFFFFF" cx="19" cy="19" r="19"></circle>
                            <g id="icon_changqugeishui" transform="translate(10.000000, 10.000000)" fill-rule="nonzero">
                                <path d="M16.8008903,13.6984039 L15.7444438,13.1429345 C15.0044039,12.7544575 14.1325279,12.6964496 13.3467848,12.9847312 L12.2323303,13.394302 C11.922955,13.5068021 11.581939,13.5120756 11.2708058,13.4101223 L10.738188,13.2325831 L10.738188,9.7802353 L12.6629949,9.7802353 C13.079597,9.7802353 13.4153395,9.44449273 13.4153395,9.02789068 L13.4153395,6.08882476 C13.4153395,5.67222271 13.079597,5.33648013 12.6629949,5.33648013 L10.738188,5.33648013 L10.738188,4.32222114 L12.4327212,3.17436824 L13.5946366,5.06753451 C13.8126056,5.42261305 14.2766687,5.53335536 14.6317472,5.31538636 C14.9850679,5.09741735 15.0993259,4.63511213 14.879599,4.27827578 L12.4696353,0.35834934 C12.2516663,0.00502861621 11.7893611,-0.1057137 11.4342825,0.110497489 C11.2637745,0.214208547 11.1424853,0.382958743 11.0950243,0.578076158 C11.0475633,0.773193573 11.0809618,0.97710006 11.1846729,1.14760807 L11.6417047,1.89292144 L10.7364302,2.5046409 L10.7364302,0.845263969 C10.7364302,0.428661922 10.4006876,0.0929193435 9.98408554,0.0929193435 L7.09599624,0.0929193435 C6.67939419,0.0929193435 6.34365162,0.428661922 6.34365162,0.845263969 L6.34365162,2.05815601 L6.17841705,2.05815601 C5.761815,2.05815601 5.42607242,2.39389858 5.42607242,2.81050063 C5.42607242,3.22710268 5.761815,3.56284526 6.17841705,3.56284526 L6.34365162,3.56284526 L6.34365162,5.006011 L6.17841705,5.006011 C5.761815,5.006011 5.42607242,5.34175358 5.42607242,5.75835562 C5.42607242,6.17495767 5.761815,6.51070025 6.17841705,6.51070025 L6.34365162,6.51070025 L6.34365162,7.95386599 L6.17841705,7.95386599 C5.761815,7.95386599 5.42607242,8.28960857 5.42607242,8.70621062 C5.42607242,9.12281266 5.761815,9.45855524 6.17841705,9.45855524 L6.34365162,9.45855524 L6.34365162,10.901721 L6.17841705,10.901721 C5.761815,10.901721 5.42607242,11.2374636 5.42607242,11.6540656 C5.42607242,12.0706677 5.761815,12.4064102 6.17841705,12.4064102 L6.34365162,12.4064102 L6.34365162,12.9618796 C5.6528305,12.7984029 4.91982183,12.8845358 4.28349297,13.2202784 L4.14110999,13.2958644 C3.77724238,13.4874662 3.34833563,13.517349 2.96337424,13.3767239 C2.28485783,13.1306298 1.54306009,13.1376611 0.871574936,13.4013333 L0.479582292,13.5542631 C0.0928630919,13.7054352 -0.100496508,14.1413732 0.0524333574,14.5298502 C0.203605408,14.9165694 0.639543416,15.1064134 1.02626262,14.9569991 L1.42001307,14.8040693 C1.75048221,14.6757488 2.11610763,14.6704754 2.44833458,14.7917646 C3.23407768,15.0782883 4.10419588,15.0185226 4.84247799,14.6282878 L4.98486097,14.5527018 C5.36103328,14.3540688 5.80576036,14.3294593 6.19951082,14.4876627 L6.66181605,14.6704754 C7.2366214,14.8989913 7.85712994,14.939421 8.4565447,14.7935224 L9.33017853,14.5808268 C9.59912415,14.5157877 9.87685885,14.5280924 10.1387732,14.6142253 L10.7891646,14.8321943 C11.4237357,15.0448899 12.1198302,15.0325852 12.74737,14.8040693 L13.8618244,14.3944985 C14.2485436,14.2538733 14.6774504,14.2819984 15.041318,14.4718423 L16.0977645,15.0273117 C16.2102647,15.0853196 16.3280382,15.1134446 16.4458118,15.1134446 C16.7165152,15.1134446 16.9784296,14.967546 17.1137813,14.7091473 C17.3106566,14.3452797 17.1700314,13.8917635 16.8008903,13.6984039 Z M10.738188,6.8429272 L11.9106503,6.8429272 L11.9106503,8.27203042 L10.738188,8.27203042 L10.738188,6.8429272 Z" id="形状" fill="#2B90FF"></path>
                                <path d="M16.7991325,16.8948233 L15.742686,16.3393539 C15.0026461,15.9508769 14.1307701,15.892869 13.345027,16.1811506 L12.2305725,16.5907214 C11.9211972,16.7032215 11.5801811,16.708495 11.269048,16.6030261 L10.6186566,16.3850571 C10.0860388,16.2075178 9.5200225,16.1846662 8.9768578,16.3165023 L8.10322398,16.5291979 C7.80615332,16.6012683 7.50380922,16.5801745 7.21904326,16.4694322 L6.75673803,16.2866195 C5.95165897,15.968455 5.04990011,16.015916 4.28349297,16.4202134 L4.14110999,16.4957994 C3.77724238,16.6874012 3.34833563,16.717284 2.96337424,16.5766589 C2.28485783,16.3305648 1.54306009,16.3375961 0.871574936,16.6012683 L0.479582292,16.7541981 C0.0928630919,16.9053702 -0.100496508,17.3413082 0.0524333574,17.7297852 C0.203605408,18.1165044 0.639543416,18.309864 1.02802043,18.1569341 L1.42001307,18.0040043 C1.75224002,17.8756838 2.11610763,17.8704104 2.4500924,17.9916996 C3.23407768,18.2782233 4.10771151,18.2184576 4.84423581,17.8282228 L4.98661879,17.7526368 C5.3627911,17.5540037 5.80751818,17.5293943 6.20126864,17.6875977 L6.66357386,17.8704104 C7.23837922,18.0989263 7.85888775,18.1411138 8.45830251,17.9934574 L9.33193634,17.7807618 C9.59912415,17.7157227 9.87861667,17.7280274 10.140531,17.8141603 L10.7909224,18.0321293 C11.4254935,18.2448249 12.121588,18.2360358 12.7491278,18.0040043 L13.8635822,17.5944335 C14.2503014,17.4538083 14.6792082,17.4819334 15.0430758,17.6717773 L16.0995223,18.2272467 C16.2120225,18.2852546 16.329796,18.3133796 16.4493274,18.3133796 C16.7200309,18.3133796 16.9819452,18.167481 17.117297,17.9125979 C17.3088988,17.541699 17.1665158,17.0881829 16.7991325,16.8948233 Z" id="路径" fill="#33E6EE"></path>
                            </g>
                        </g>
                    </g>
                </g>
            </g>
        </g>
    </g>
</svg>