<?xml version="1.0" encoding="UTF-8"?>
<svg width="18px" height="18px" viewBox="0 0 18 18" version="1.1" xmlns="http://www.w3.org/2000/svg" xmlns:xlink="http://www.w3.org/1999/xlink">
    <!-- Generator: Sketch 52.4 (67378) - http://www.bohemiancoding.com/sketch -->
    <title>icon_huanyuan</title>
    <desc>Created with Sketch.</desc>
    <g id="首页" stroke="none" stroke-width="1" fill="none" fill-rule="evenodd">
        <g id="ui-kit" transform="translate(-349.000000, -884.000000)" fill="#FFFFFF">
            <g id="icon_huanyuan" transform="translate(349.000000, 884.000000)">
                <path d="M3.5991259,6.21088709e-16 L0.900327789,6.21088709e-16 C0.404273401,6.21088709e-16 0,0.404273401 0,0.900327789 L0,3.60131116 C0,4.09736555 0.404273401,4.50163895 0.900327789,4.50163895 C1.39638218,4.50163895 1.80065558,4.09736555 1.80065558,3.60131116 L1.80065558,1.80065558 L3.60131116,1.80065558 C4.09736555,1.80065558 4.50163895,1.39638218 4.50163895,0.900327789 C4.50163895,0.404273401 4.09518028,0 3.5991259,6.21088709e-16 Z M14.3986888,18 L17.0996722,18 C17.5957266,18 18,17.5957266 18,17.0996722 L18,14.4008741 C18,13.9048197 17.5957266,13.5005463 17.0996722,13.5005463 C16.6036178,13.5005463 16.1993444,13.9048197 16.1993444,14.4008741 L16.1993444,16.2015297 L14.3986888,16.2015297 C13.9026345,16.2015297 13.4983611,16.6058031 13.4983611,17.1018575 C13.4983611,17.5979119 13.9048197,18 14.3986888,18 Z" id="形状" fill-rule="nonzero" opacity="0.300000012"></path>
                <path d="M12.5519414,3.76044065 C15.4162036,5.3595437 16.3654129,8.95677206 14.6716403,11.7951719 C13.7273262,13.3762169 12.11374,14.4542171 10.2798567,14.729228 C9.9221583,14.7869843 9.58588697,14.5472069 9.52877176,14.193671 C9.52812373,14.1896597 9.52751387,14.1856424 9.52694224,14.1816195 C9.48097537,13.8195541 9.73689476,13.4867617 10.1022855,13.4334535 C11.5293945,13.2203176 12.7852124,12.3816712 13.5197165,11.1512624 C14.8360819,8.94432566 14.0985321,6.14683446 11.8713971,4.90260246 C9.64714871,3.6613231 6.77987345,4.43740599 5.46035923,6.63693592 L6.33451476,7.12438476 C6.65050884,7.3004128 6.63066523,7.55463761 6.27873005,7.69729493 L4.02510265,8.61377502 C3.67804421,8.75479315 3.35955698,8.58249366 3.31176514,8.21617932 L3.00634355,5.87013106 C2.95894511,5.51049793 3.18270899,5.36405397 3.49218636,5.53690428 L4.30793217,5.99216265 C6.003607,3.16303383 9.69231567,2.16328968 12.5524447,3.76130435 L12.5519414,3.76044065 Z" id="路径"></path>
            </g>
        </g>
    </g>
</svg>