<?xml version="1.0" encoding="UTF-8"?>
<svg width="38px" height="38px" viewBox="0 0 38 38" version="1.1" xmlns="http://www.w3.org/2000/svg" xmlns:xlink="http://www.w3.org/1999/xlink">
    <!-- Generator: Sketch 52.4 (67378) - http://www.bohemiancoding.com/sketch -->
    <title>icon_guandaoshusong_p</title>
    <desc>Created with Sketch.</desc>
    <g id="Page-2" stroke="none" stroke-width="1" fill="none" fill-rule="evenodd">
        <g id="icon_cut" transform="translate(-663.000000, -360.000000)">
            <g id="icon-copy" transform="translate(143.000000, 360.000000)">
                <g id="管道输送" transform="translate(520.000000, 0.000000)">
                    <g id="icon_guandaoshusong_p">
                        <g id="分组">
                            <circle id="椭圆形" fill="#2F80E7" cx="19" cy="19" r="19"></circle>
                            <g id="管道" transform="translate(9.000000, 10.000000)" fill-rule="nonzero">
                                <path d="M17.250093,0 L17.250093,0.539329668 L6.33425369,0.539329668 C4.49573274,0.539329668 3.00000851,2.01116058 3.00000851,3.82019601 L3.00000851,6.56160712 L4.91828781,6.56160712 L4.91828781,3.82017508 C4.91828781,3.05200908 5.55361545,2.4269563 6.33424944,2.4269563 L17.2500675,2.4269563 L17.2500675,2.96628597 L18.8943157,2.96628597 L18.8943157,0 L17.2500888,1.46488735e-05 L17.250093,0 Z M4.9182793,14.5168871 L4.9182793,11.6852808 L3,11.6852808 L3,14.5168871 C3,16.3259142 4.49571998,17.7977535 6.33424519,17.7977535 L12.6826516,17.7977535 L12.6826516,15.9101122 L6.33424519,15.9101122 C5.5536112,15.9101122 4.91828356,15.2850594 4.91828356,14.5168934 L4.9182793,14.5168871 Z M14.5096758,11.3707276 L14.5096758,14.5168871 L16.4279551,14.5168871 L16.4279551,11.3707276 C16.4279551,9.56170059 14.9322351,8.08986131 13.0937099,8.08986131 L6.42551729,8.08986131 L6.42551729,9.97750259 L13.0937312,9.97750259 C13.8743652,9.97750259 14.5096716,10.6025554 14.5096716,11.3707214 L14.5096758,11.3707276 Z" id="形状" fill="#FFFFFF"></path>
                                <polygon id="路径" fill="#56EAF0" points="0 8 1.59848244 8 1.59848244 9.88764128 3.02216911e-16 9.88764128"></polygon>
                                <polygon id="路径" fill="#56EAF0" points="5.28846665 11.1797547 5.28846665 10.1963068 6.11057906 10.1963068 6.11057906 7.98346886 5.28846665 7.98346886 5.28846665 7 2.82211241 7 2.82211241 7.94381018 2 7.94381018 2 10.1011288 2.82211241 10.1011288 2.82211241 11.1797652"></polygon>
                                <polygon id="路径" fill="#56EAF0" points="17.5222507 15 14.9994548 15 14.9994548 15.8089819 14 15.8089819 14 18.2359445 18.5216459 18.2359445 18.5216459 15.8089819 17.5222358 15.8089819"></polygon>
                            </g>
                        </g>
                    </g>
                </g>
            </g>
        </g>
    </g>
</svg>